<svg id="Calque_1" data-name="Calque 1" xmlns="http://www.w3.org/2000/svg" viewBox="0 0 110.53 110.53"><defs><style>.cls-1{fill:#ef7952;}.cls-2{fill:#1e1e1c;}</style></defs><title>emoticon-3</title><rect class="cls-1" width="110.53" height="110.53" rx="12.92"/><ellipse class="cls-2" cx="31.98" cy="31.15" rx="6.35" ry="12.17"/><ellipse class="cls-2" cx="78.55" cy="31.15" rx="6.35" ry="12.17"/><path class="cls-2" d="M90.22,95A2.35,2.35,0,0,1,88.34,94a30.8,30.8,0,0,0-49,0,2.37,2.37,0,1,1-3.76-2.87A35.76,35.76,0,0,1,47.83,81a35.67,35.67,0,0,1,32,0A35.73,35.73,0,0,1,92.1,91.17a2.36,2.36,0,0,1-.44,3.32A2.42,2.42,0,0,1,90.22,95Z" transform="translate(-8.58 -8.58)"/></svg>