<svg id="Calque_1" data-name="Calque 1" xmlns="http://www.w3.org/2000/svg" viewBox="0 0 110.53 110.53"><defs><style>.cls-1{fill:#93c463;}.cls-2{fill:#1e1e1c;}</style></defs><title>emoticon-1</title><path class="cls-1" d="M12.92,0H97.61a12.92,12.92,0,0,1,12.92,12.92v84.7a12.91,12.91,0,0,1-12.91,12.91H12.91A12.91,12.91,0,0,1,0,97.62V12.92A12.92,12.92,0,0,1,12.92,0Z"/><ellipse class="cls-2" cx="30.92" cy="29.81" rx="6.35" ry="12.17"/><path class="cls-2" d="M92.43,38.39c0,6.73-2.84,12.18-6.35,12.18s-6.35-5.45-6.35-12.18,2.84-12.17,6.35-12.17S92.43,31.67,92.43,38.39Z" transform="translate(-8.58 -8.58)"/><path class="cls-2" d="M37.47,77.18a2.35,2.35,0,0,1,1.88.93,30.81,30.81,0,0,0,49,0A2.37,2.37,0,1,1,92.1,81,35.7,35.7,0,0,1,79.87,91.16a35.58,35.58,0,0,1-32,0A35.73,35.73,0,0,1,35.59,81a2.36,2.36,0,0,1,1.88-3.8Z" transform="translate(-8.58 -8.58)"/></svg>