<svg id="Calque_1" data-name="Calque 1" xmlns="http://www.w3.org/2000/svg" viewBox="0 0 110.53 110.53"><defs><style>.cls-1{fill:#e12326;}.cls-2{fill:#1e1e1c;}</style></defs><title>emoticon-4</title><rect class="cls-1" width="110.53" height="110.53" rx="12.92"/><path class="cls-2" d="M89.52,95A2.37,2.37,0,0,1,87.64,94a30.8,30.8,0,0,0-49,0,2.37,2.37,0,1,1-3.76-2.87A35.76,35.76,0,0,1,47.13,81a35.67,35.67,0,0,1,32,0A35.86,35.86,0,0,1,91.41,91.17,2.37,2.37,0,0,1,91,94.49,2.42,2.42,0,0,1,89.52,95Z" transform="translate(-8.58 -8.58)"/><path class="cls-2" d="M48.62,48.17c-.34,6.09-3,10.83-6.31,10.83C38.8,59,36,53.55,36,46.82a18.35,18.35,0,0,1,2.17-9.15Z" transform="translate(-8.58 -8.58)"/><rect class="cls-2" x="44.52" y="29.31" width="2.08" height="21.04" transform="translate(-23.4 35.3) rotate(-45)"/><path class="cls-2" d="M80.39,48.17c.35,6.09,3,10.83,6.32,10.83,3.51,0,6.35-5.45,6.35-12.18a18.35,18.35,0,0,0-2.17-9.15Z" transform="translate(-8.58 -8.58)"/><rect class="cls-2" x="72.94" y="38.79" width="21.04" height="2.08" transform="translate(-12.3 62.09) rotate(-45)"/></svg>